<?xml version="1.0" encoding="UTF-8" standalone="yes"?>
<score-partwise>
    <work>
        <work-title>MelodicIdentical</work-title>
    </work>
    <part id="P1">
        <measure number="1">
            <direction placement="above">
                <direction-type>
                    <metronome>
                        <beat-unit>quarter</beat-unit>
                        <per-minute>120</per-minute>
                    </metronome>
                </direction-type>
                <sound tempo="120"/>
            </direction>
            <direction placement="above">
                <direction-type>
                    <metronome>
                        <beat-unit>quarter</beat-unit>
                        <per-minute>120</per-minute>
                    </metronome>
                </direction-type>
                <sound tempo="120"/>
            </direction>
            <note>
                <rest/>
                <duration>192</duration>
                <voice>1</voice>
                <type>whole</type>
                <staff>1</staff>
            </note>
            <backup>
                <duration>192</duration>
            </backup>
            <attributes>
                <divisions>64</divisions>
                <key>
                    <fifths>0</fifths>
                    <mode>major</mode>
                </key>
                <time print-object="yes">
                    <beats>3</beats>
                    <beat-type>4</beat-type>
                </time>
                <staves>2</staves>
                <clef number="1">
                    <sign>G</sign>
                    <line>2</line>
                </clef>
                <clef number="2">
                    <sign>F</sign>
                    <line>4</line>
                </clef>
            </attributes>
            <note>
                <pitch>
                    <step>G</step>
                    <octave>2</octave>
                </pitch>
                <duration>32</duration>
                <voice>3</voice>
                <type>eighth</type>
                <staff>2</staff>
                <beam number="1">begin</beam>
            </note>
            <note>
                <pitch>
                    <step>D</step>
                    <octave>3</octave>
                </pitch>
                <duration>32</duration>
                <voice>3</voice>
                <type>eighth</type>
                <staff>2</staff>
                <beam number="1">end</beam>
            </note>
            <note>
                <pitch>
                    <step>B</step>
                    <octave>3</octave>
                </pitch>
                <duration>64</duration>
                <voice>3</voice>
                <type>quarter</type>
                <staff>2</staff>
            </note>
            <note>
                <pitch>
                    <step>A</step>
                    <octave>3</octave>
                </pitch>
                <duration>32</duration>
                <voice>3</voice>
                <type>eighth</type>
                <staff>2</staff>
                <beam number="1">begin</beam>
            </note>
            <note>
                <pitch>
                    <step>B</step>
                    <octave>3</octave>
                </pitch>
                <duration>16</duration>
                <voice>3</voice>
                <type>16th</type>
                <staff>2</staff>
                <beam number="1">continue</beam>
            </note>
            <note>
                <pitch>
                    <step>C</step>
                    <octave>4</octave>
                </pitch>
                <duration>16</duration>
                <voice>3</voice>
                <type>16th</type>
                <staff>2</staff>
                <beam number="1">end</beam>
            </note>
        </measure>
        <measure number="2">
            <note>
                <rest/>
                <duration>192</duration>
                <voice>1</voice>
                <type>whole</type>
                <staff>1</staff>
            </note>
            <backup>
                <duration>192</duration>
            </backup>
            <attributes/>
            <note>
                <pitch>
                    <step>B</step>
                    <octave>3</octave>
                </pitch>
                <duration>32</duration>
                <voice>3</voice>
                <type>eighth</type>
                <staff>2</staff>
                <beam number="1">begin</beam>
            </note>
            <note>
                <pitch>
                    <step>A</step>
                    <octave>3</octave>
                </pitch>
                <duration>32</duration>
                <voice>3</voice>
                <type>eighth</type>
                <staff>2</staff>
                <beam number="1">end</beam>
            </note>
            <note>
                <pitch>
                    <step>G</step>
                    <octave>3</octave>
                </pitch>
                <duration>32</duration>
                <voice>3</voice>
                <type>eighth</type>
                <staff>2</staff>
                <beam number="1">begin</beam>
            </note>
            <note>
                <pitch>
                    <step>E</step>
                    <octave>3</octave>
                </pitch>
                <duration>32</duration>
                <voice>3</voice>
                <type>eighth</type>
                <staff>2</staff>
                <beam number="1">end</beam>
            </note>
            <note>
                <pitch>
                    <step>G</step>
                    <octave>3</octave>
                </pitch>
                <duration>32</duration>
                <voice>3</voice>
                <type>eighth</type>
                <staff>2</staff>
                <beam number="1">begin</beam>
            </note>
            <note>
                <pitch>
                    <step>B</step>
                    <octave>2</octave>
                </pitch>
                <duration>32</duration>
                <voice>3</voice>
                <type>eighth</type>
                <staff>2</staff>
                <beam number="1">end</beam>
            </note>
        </measure>
        <measure number="3">
            <note>
                <rest/>
                <duration>192</duration>
                <voice>1</voice>
                <type>whole</type>
                <staff>1</staff>
            </note>
            <backup>
                <duration>192</duration>
            </backup>
            <attributes/>
            <note>
                <pitch>
                    <step>E</step>
                    <octave>3</octave>
                </pitch>
                <duration>32</duration>
                <voice>3</voice>
                <type>eighth</type>
                <staff>2</staff>
                <beam number="1">begin</beam>
            </note>
            <note>
                <pitch>
                    <step>G</step>
                    <octave>3</octave>
                </pitch>
                <duration>32</duration>
                <voice>3</voice>
                <type>eighth</type>
                <staff>2</staff>
                <beam number="1">end</beam>
            </note>
            <note>
                <pitch>
                    <step>C</step>
                    <octave>4</octave>
                </pitch>
                <duration>32</duration>
                <voice>3</voice>
                <type>eighth</type>
                <staff>2</staff>
                <beam number="1">begin</beam>
            </note>
            <note>
                <pitch>
                    <step>A</step>
                    <octave>3</octave>
                </pitch>
                <duration>32</duration>
                <voice>3</voice>
                <type>eighth</type>
                <staff>2</staff>
                <beam number="1">end</beam>
            </note>
            <note>
                <pitch>
                    <step>F</step>
                    <octave>3</octave>
                </pitch>
                <duration>32</duration>
                <voice>3</voice>
                <type>eighth</type>
                <staff>2</staff>
                <beam number="1">begin</beam>
            </note>
            <note>
                <pitch>
                    <step>C</step>
                    <octave>4</octave>
                </pitch>
                <duration>32</duration>
                <voice>3</voice>
                <type>eighth</type>
                <staff>2</staff>
                <beam number="1">end</beam>
            </note>
        </measure>
        <measure number="4">
            <note>
                <rest/>
                <duration>192</duration>
                <voice>1</voice>
                <type>whole</type>
                <staff>1</staff>
            </note>
            <backup>
                <duration>192</duration>
            </backup>
            <attributes/>
            <note>
                <pitch>
                    <step>C</step>
                    <octave>4</octave>
                </pitch>
                <duration>128</duration>
                <voice>3</voice>
                <type>half</type>
                <staff>2</staff>
            </note>
            <note>
                <pitch>
                    <step>D</step>
                    <octave>3</octave>
                </pitch>
                <duration>64</duration>
                <voice>3</voice>
                <type>quarter</type>
                <staff>2</staff>
            </note>
        </measure>
        <measure number="5">
            <note>
                <rest/>
                <duration>192</duration>
                <voice>1</voice>
                <type>whole</type>
                <staff>1</staff>
            </note>
            <backup>
                <duration>192</duration>
            </backup>
            <attributes/>
            <note>
                <pitch>
                    <step>A</step>
                    <octave>2</octave>
                </pitch>
                <duration>32</duration>
                <voice>3</voice>
                <type>eighth</type>
                <staff>2</staff>
                <beam number="1">begin</beam>
            </note>
            <note>
                <pitch>
                    <step>F</step>
                    <octave>3</octave>
                </pitch>
                <duration>32</duration>
                <voice>3</voice>
                <type>eighth</type>
                <staff>2</staff>
                <beam number="1">end</beam>
            </note>
            <note>
                <pitch>
                    <step>C</step>
                    <octave>4</octave>
                </pitch>
                <duration>64</duration>
                <voice>3</voice>
                <type>quarter</type>
                <staff>2</staff>
            </note>
            <note>
                <pitch>
                    <step>B</step>
                    <octave>3</octave>
                </pitch>
                <duration>32</duration>
                <voice>3</voice>
                <type>eighth</type>
                <staff>2</staff>
                <beam number="1">begin</beam>
            </note>
            <note>
                <pitch>
                    <step>C</step>
                    <octave>4</octave>
                </pitch>
                <duration>16</duration>
                <voice>3</voice>
                <type>16th</type>
                <staff>2</staff>
                <beam number="1">continue</beam>
            </note>
            <note>
                <pitch>
                    <step>D</step>
                    <octave>4</octave>
                </pitch>
                <duration>16</duration>
                <voice>3</voice>
                <type>16th</type>
                <staff>2</staff>
                <beam number="1">end</beam>
            </note>
        </measure>
        <measure number="6">
            <note>
                <rest/>
                <duration>192</duration>
                <voice>1</voice>
                <type>whole</type>
                <staff>1</staff>
            </note>
            <backup>
                <duration>192</duration>
            </backup>
            <attributes/>
            <note>
                <pitch>
                    <step>D</step>
                    <octave>4</octave>
                </pitch>
                <duration>32</duration>
                <voice>3</voice>
                <type>eighth</type>
                <staff>2</staff>
                <beam number="1">begin</beam>
            </note>
            <note>
                <pitch>
                    <step>B</step>
                    <octave>3</octave>
                </pitch>
                <duration>32</duration>
                <voice>3</voice>
                <type>eighth</type>
                <staff>2</staff>
                <beam number="1">end</beam>
            </note>
            <note>
                <pitch>
                    <step>A</step>
                    <octave>3</octave>
                </pitch>
                <duration>32</duration>
                <voice>3</voice>
                <type>eighth</type>
                <staff>2</staff>
                <beam number="1">begin</beam>
            </note>
            <note>
                <pitch>
                    <step>G</step>
                    <octave>3</octave>
                </pitch>
                <duration>32</duration>
                <voice>3</voice>
                <type>eighth</type>
                <staff>2</staff>
                <beam number="1">end</beam>
            </note>
            <note>
                <pitch>
                    <step>F</step>
                    <octave>3</octave>
                </pitch>
                <duration>32</duration>
                <voice>3</voice>
                <type>eighth</type>
                <staff>2</staff>
                <beam number="1">begin</beam>
            </note>
            <note>
                <pitch>
                    <step>E</step>
                    <octave>3</octave>
                </pitch>
                <duration>32</duration>
                <voice>3</voice>
                <type>eighth</type>
                <staff>2</staff>
                <beam number="1">end</beam>
            </note>
        </measure>
        <measure number="7">
            <note>
                <rest/>
                <duration>192</duration>
                <voice>1</voice>
                <type>whole</type>
                <staff>1</staff>
            </note>
            <backup>
                <duration>192</duration>
            </backup>
            <attributes/>
            <note>
                <pitch>
                    <step>F</step>
                    <octave>3</octave>
                </pitch>
                <duration>32</duration>
                <voice>3</voice>
                <type>eighth</type>
                <staff>2</staff>
                <beam number="1">begin</beam>
            </note>
            <note>
                <pitch>
                    <step>G</step>
                    <octave>3</octave>
                </pitch>
                <duration>16</duration>
                <voice>3</voice>
                <type>16th</type>
                <staff>2</staff>
                <beam number="1">continue</beam>
            </note>
            <note>
                <pitch>
                    <step>A</step>
                    <octave>3</octave>
                </pitch>
                <duration>16</duration>
                <voice>3</voice>
                <type>16th</type>
                <staff>2</staff>
                <beam number="1">end</beam>
            </note>
            <note>
                <pitch>
                    <step>G</step>
                    <octave>3</octave>
                </pitch>
                <duration>32</duration>
                <voice>3</voice>
                <type>eighth</type>
                <staff>2</staff>
                <beam number="1">begin</beam>
            </note>
            <note>
                <pitch>
                    <step>F</step>
                    <octave>3</octave>
                </pitch>
                <duration>32</duration>
                <voice>3</voice>
                <type>eighth</type>
                <staff>2</staff>
                <beam number="1">end</beam>
            </note>
            <note>
                <pitch>
                    <step>E</step>
                    <octave>3</octave>
                </pitch>
                <duration>32</duration>
                <voice>3</voice>
                <type>eighth</type>
                <staff>2</staff>
                <beam number="1">begin</beam>
            </note>
            <note>
                <pitch>
                    <step>F</step>
                    <octave>3</octave>
                </pitch>
                <duration>32</duration>
                <voice>3</voice>
                <type>eighth</type>
                <staff>2</staff>
                <beam number="1">end</beam>
            </note>
        </measure>
        <measure number="8">
            <note>
                <rest/>
                <duration>192</duration>
                <voice>1</voice>
                <type>whole</type>
                <staff>1</staff>
            </note>
            <backup>
                <duration>192</duration>
            </backup>
            <attributes/>
            <note>
                <pitch>
                    <step>D</step>
                    <octave>3</octave>
                </pitch>
                <duration>64</duration>
                <voice>3</voice>
                <type>quarter</type>
                <staff>2</staff>
            </note>
            <note>
                <pitch>
                    <step>A</step>
                    <octave>2</octave>
                </pitch>
                <duration>64</duration>
                <voice>3</voice>
                <type>quarter</type>
                <staff>2</staff>
            </note>
            <note>
                <pitch>
                    <step>D</step>
                    <octave>2</octave>
                </pitch>
                <duration>64</duration>
                <voice>3</voice>
                <type>quarter</type>
                <staff>2</staff>
            </note>
        </measure>
        <measure number="9">
            <note>
                <rest/>
                <duration>192</duration>
                <voice>1</voice>
                <type>whole</type>
                <staff>1</staff>
            </note>
            <backup>
                <duration>192</duration>
            </backup>
            <attributes/>
            <note>
                <pitch>
                    <step>D</step>
                    <octave>3</octave>
                </pitch>
                <duration>32</duration>
                <voice>3</voice>
                <type>eighth</type>
                <staff>2</staff>
                <beam number="1">begin</beam>
            </note>
            <note>
                <pitch>
                    <step>F</step>
                    <octave>3</octave>
                </pitch>
                <duration>32</duration>
                <voice>3</voice>
                <type>eighth</type>
                <staff>2</staff>
                <beam number="1">end</beam>
            </note>
            <note>
                <pitch>
                    <step>A</step>
                    <octave>3</octave>
                </pitch>
                <duration>64</duration>
                <voice>3</voice>
                <type>quarter</type>
                <staff>2</staff>
            </note>
            <note>
                <pitch>
                    <step>G</step>
                    <octave>3</octave>
                </pitch>
                <duration>32</duration>
                <voice>3</voice>
                <type>eighth</type>
                <staff>2</staff>
                <beam number="1">begin</beam>
            </note>
            <note>
                <pitch>
                    <step>A</step>
                    <octave>3</octave>
                </pitch>
                <duration>16</duration>
                <voice>3</voice>
                <type>16th</type>
                <staff>2</staff>
                <beam number="1">continue</beam>
            </note>
            <note>
                <pitch>
                    <step>B</step>
                    <octave>3</octave>
                </pitch>
                <duration>16</duration>
                <voice>3</voice>
                <type>16th</type>
                <staff>2</staff>
                <beam number="1">end</beam>
            </note>
        </measure>
        <measure number="10">
            <note>
                <rest/>
                <duration>192</duration>
                <voice>1</voice>
                <type>whole</type>
                <staff>1</staff>
            </note>
            <backup>
                <duration>192</duration>
            </backup>
            <attributes/>
            <note>
                <pitch>
                    <step>A</step>
                    <octave>3</octave>
                </pitch>
                <duration>32</duration>
                <voice>3</voice>
                <type>eighth</type>
                <staff>2</staff>
                <beam number="1">begin</beam>
            </note>
            <note>
                <pitch>
                    <step>G</step>
                    <octave>3</octave>
                </pitch>
                <duration>32</duration>
                <voice>3</voice>
                <type>eighth</type>
                <staff>2</staff>
                <beam number="1">end</beam>
            </note>
            <note>
                <pitch>
                    <step>F</step>
                    <octave>3</octave>
                </pitch>
                <duration>32</duration>
                <voice>3</voice>
                <type>eighth</type>
                <staff>2</staff>
                <beam number="1">begin</beam>
            </note>
            <note>
                <pitch>
                    <step>E</step>
                    <octave>3</octave>
                </pitch>
                <duration>32</duration>
                <voice>3</voice>
                <type>eighth</type>
                <staff>2</staff>
                <beam number="1">end</beam>
            </note>
            <note>
                <pitch>
                    <step>D</step>
                    <octave>3</octave>
                </pitch>
                <duration>32</duration>
                <voice>3</voice>
                <type>eighth</type>
                <staff>2</staff>
                <beam number="1">begin</beam>
            </note>
            <note>
                <pitch>
                    <step>F</step>
                    <octave>3</octave>
                </pitch>
                <duration>32</duration>
                <voice>3</voice>
                <type>eighth</type>
                <staff>2</staff>
                <beam number="1">end</beam>
            </note>
        </measure>
        <measure number="11">
            <note>
                <rest/>
                <duration>192</duration>
                <voice>1</voice>
                <type>whole</type>
                <staff>1</staff>
            </note>
            <backup>
                <duration>192</duration>
            </backup>
            <attributes/>
            <note>
                <pitch>
                    <step>B</step>
                    <octave>2</octave>
                </pitch>
                <duration>32</duration>
                <voice>3</voice>
                <type>eighth</type>
                <staff>2</staff>
                <beam number="1">begin</beam>
            </note>
            <note>
                <pitch>
                    <step>D</step>
                    <octave>3</octave>
                </pitch>
                <duration>32</duration>
                <voice>3</voice>
                <type>eighth</type>
                <staff>2</staff>
                <beam number="1">end</beam>
            </note>
            <note>
                <pitch>
                    <step>G</step>
                    <alter>1</alter>
                    <octave>3</octave>
                </pitch>
                <duration>32</duration>
                <voice>3</voice>
                <type>eighth</type>
                <accidental>sharp</accidental>
                <staff>2</staff>
                <beam number="1">begin</beam>
            </note>
            <note>
                <pitch>
                    <step>A</step>
                    <octave>3</octave>
                </pitch>
                <duration>32</duration>
                <voice>3</voice>
                <type>eighth</type>
                <staff>2</staff>
                <beam number="1">end</beam>
            </note>
            <note>
                <pitch>
                    <step>B</step>
                    <octave>3</octave>
                </pitch>
                <duration>32</duration>
                <voice>3</voice>
                <type>eighth</type>
                <staff>2</staff>
                <beam number="1">begin</beam>
            </note>
            <note>
                <pitch>
                    <step>D</step>
                    <octave>4</octave>
                </pitch>
                <duration>32</duration>
                <voice>3</voice>
                <type>eighth</type>
                <staff>2</staff>
                <beam number="1">end</beam>
            </note>
        </measure>
        <measure number="12">
            <note>
                <rest/>
                <duration>192</duration>
                <voice>1</voice>
                <type>whole</type>
                <staff>1</staff>
            </note>
            <backup>
                <duration>192</duration>
            </backup>
            <attributes/>
            <note>
                <pitch>
                    <step>A</step>
                    <octave>2</octave>
                </pitch>
                <duration>32</duration>
                <voice>3</voice>
                <type>eighth</type>
                <staff>2</staff>
                <beam number="1">begin</beam>
            </note>
            <note>
                <pitch>
                    <step>D</step>
                    <octave>4</octave>
                </pitch>
                <duration>32</duration>
                <voice>3</voice>
                <type>eighth</type>
                <staff>2</staff>
                <beam number="1">end</beam>
            </note>
            <note>
                <pitch>
                    <step>C</step>
                    <octave>4</octave>
                </pitch>
                <duration>32</duration>
                <voice>3</voice>
                <type>eighth</type>
                <staff>2</staff>
                <beam number="1">begin</beam>
            </note>
            <note>
                <pitch>
                    <step>B</step>
                    <octave>3</octave>
                </pitch>
                <duration>32</duration>
                <voice>3</voice>
                <type>eighth</type>
                <staff>2</staff>
                <beam number="1">end</beam>
            </note>
            <note>
                <pitch>
                    <step>C</step>
                    <octave>4</octave>
                </pitch>
                <duration>64</duration>
                <voice>3</voice>
                <type>quarter</type>
                <staff>2</staff>
            </note>
        </measure>
        <measure number="13">
            <note>
                <rest/>
                <duration>192</duration>
                <voice>1</voice>
                <type>whole</type>
                <staff>1</staff>
            </note>
            <backup>
                <duration>192</duration>
            </backup>
            <attributes/>
            <note>
                <pitch>
                    <step>D</step>
                    <alter>1</alter>
                    <octave>3</octave>
                </pitch>
                <duration>32</duration>
                <voice>3</voice>
                <type>eighth</type>
                <accidental>sharp</accidental>
                <staff>2</staff>
                <beam number="1">begin</beam>
            </note>
            <note>
                <pitch>
                    <step>F</step>
                    <octave>3</octave>
                </pitch>
                <duration>32</duration>
                <voice>3</voice>
                <type>eighth</type>
                <staff>2</staff>
                <beam number="1">end</beam>
            </note>
            <note>
                <pitch>
                    <step>A</step>
                    <octave>3</octave>
                </pitch>
                <duration>32</duration>
                <voice>3</voice>
                <type>eighth</type>
                <staff>2</staff>
                <beam number="1">begin</beam>
            </note>
            <note>
                <pitch>
                    <step>C</step>
                    <octave>4</octave>
                </pitch>
                <duration>32</duration>
                <voice>3</voice>
                <type>eighth</type>
                <staff>2</staff>
                <beam number="1">end</beam>
            </note>
            <note>
                <pitch>
                    <step>B</step>
                    <octave>3</octave>
                </pitch>
                <duration>32</duration>
                <voice>3</voice>
                <type>eighth</type>
                <staff>2</staff>
                <beam number="1">begin</beam>
            </note>
            <note>
                <pitch>
                    <step>A</step>
                    <octave>3</octave>
                </pitch>
                <duration>32</duration>
                <voice>3</voice>
                <type>eighth</type>
                <staff>2</staff>
                <beam number="1">end</beam>
            </note>
        </measure>
        <measure number="14">
            <note>
                <rest/>
                <duration>192</duration>
                <voice>1</voice>
                <type>whole</type>
                <staff>1</staff>
            </note>
            <backup>
                <duration>192</duration>
            </backup>
            <attributes/>
            <note>
                <pitch>
                    <step>B</step>
                    <octave>3</octave>
                </pitch>
                <duration>32</duration>
                <voice>3</voice>
                <type>eighth</type>
                <staff>2</staff>
                <beam number="1">begin</beam>
            </note>
            <note>
                <pitch>
                    <step>E</step>
                    <octave>3</octave>
                </pitch>
                <duration>32</duration>
                <voice>3</voice>
                <type>eighth</type>
                <staff>2</staff>
                <beam number="1">end</beam>
            </note>
            <note>
                <pitch>
                    <step>G</step>
                    <octave>2</octave>
                </pitch>
                <duration>32</duration>
                <voice>3</voice>
                <type>eighth</type>
                <staff>2</staff>
                <beam number="1">begin</beam>
            </note>
            <note>
                <pitch>
                    <step>A</step>
                    <octave>3</octave>
                </pitch>
                <duration>32</duration>
                <voice>3</voice>
                <type>eighth</type>
                <staff>2</staff>
                <beam number="1">end</beam>
            </note>
            <note>
                <pitch>
                    <step>C</step>
                    <octave>4</octave>
                </pitch>
                <duration>32</duration>
                <voice>3</voice>
                <type>eighth</type>
                <staff>2</staff>
                <beam number="1">begin</beam>
            </note>
            <note>
                <pitch>
                    <step>B</step>
                    <octave>3</octave>
                </pitch>
                <duration>32</duration>
                <voice>3</voice>
                <type>eighth</type>
                <staff>2</staff>
                <beam number="1">end</beam>
            </note>
        </measure>
        <measure number="15">
            <note>
                <rest/>
                <duration>192</duration>
                <voice>1</voice>
                <type>whole</type>
                <staff>1</staff>
            </note>
            <backup>
                <duration>192</duration>
            </backup>
            <attributes/>
            <note>
                <pitch>
                    <step>A</step>
                    <octave>3</octave>
                </pitch>
                <duration>32</duration>
                <voice>3</voice>
                <type>eighth</type>
                <staff>2</staff>
                <beam number="1">begin</beam>
            </note>
            <note>
                <pitch>
                    <step>G</step>
                    <octave>3</octave>
                </pitch>
                <duration>32</duration>
                <voice>3</voice>
                <type>eighth</type>
                <staff>2</staff>
                <beam number="1">end</beam>
            </note>
            <note>
                <pitch>
                    <step>F</step>
                    <octave>3</octave>
                </pitch>
                <duration>32</duration>
                <voice>3</voice>
                <type>eighth</type>
                <staff>2</staff>
                <beam number="1">begin</beam>
            </note>
            <note>
                <pitch>
                    <step>E</step>
                    <octave>3</octave>
                </pitch>
                <duration>32</duration>
                <voice>3</voice>
                <type>eighth</type>
                <staff>2</staff>
                <beam number="1">end</beam>
            </note>
            <note>
                <pitch>
                    <step>B</step>
                    <octave>2</octave>
                </pitch>
                <duration>32</duration>
                <voice>3</voice>
                <type>eighth</type>
                <staff>2</staff>
                <beam number="1">begin</beam>
            </note>
            <note>
                <pitch>
                    <step>E</step>
                    <alter>1</alter>
                    <octave>3</octave>
                </pitch>
                <duration>32</duration>
                <voice>3</voice>
                <type>eighth</type>
                <accidental>sharp</accidental>
                <staff>2</staff>
                <beam number="1">end</beam>
            </note>
        </measure>
        <measure number="16">
            <note>
                <rest/>
                <duration>192</duration>
                <voice>1</voice>
                <type>whole</type>
                <staff>1</staff>
            </note>
            <backup>
                <duration>192</duration>
            </backup>
            <attributes/>
            <note>
                <pitch>
                    <step>E</step>
                    <octave>2</octave>
                </pitch>
                <duration>64</duration>
                <voice>3</voice>
                <type>quarter</type>
                <staff>2</staff>
            </note>
            <note>
                <pitch>
                    <step>E</step>
                    <octave>3</octave>
                </pitch>
                <duration>32</duration>
                <voice>3</voice>
                <type>eighth</type>
                <staff>2</staff>
                <beam number="1">begin</beam>
            </note>
            <note>
                <pitch>
                    <step>D</step>
                    <octave>3</octave>
                </pitch>
                <duration>32</duration>
                <voice>3</voice>
                <type>eighth</type>
                <accidental>natural</accidental>
                <staff>2</staff>
                <beam number="1">end</beam>
            </note>
            <note>
                <pitch>
                    <step>C</step>
                    <octave>3</octave>
                </pitch>
                <duration>32</duration>
                <voice>3</voice>
                <type>eighth</type>
                <staff>2</staff>
            </note>
            <note>
                <rest/>
                <duration>32</duration>
                <voice>3</voice>
                <type>eighth</type>
                <staff>2</staff>
            </note>
        </measure>
        <measure number="17">
            <note>
                <rest/>
                <duration>192</duration>
                <voice>1</voice>
                <type>whole</type>
                <staff>1</staff>
            </note>
            <backup>
                <duration>192</duration>
            </backup>
            <attributes/>
            <note>
                <pitch>
                    <step>B</step>
                    <octave>2</octave>
                </pitch>
                <duration>32</duration>
                <voice>3</voice>
                <type>eighth</type>
                <staff>2</staff>
                <beam number="1">begin</beam>
            </note>
            <note>
                <pitch>
                    <step>D</step>
                    <octave>3</octave>
                </pitch>
                <duration>32</duration>
                <voice>3</voice>
                <type>eighth</type>
                <staff>2</staff>
                <beam number="1">end</beam>
            </note>
            <note>
                <pitch>
                    <step>G</step>
                    <octave>3</octave>
                </pitch>
                <duration>64</duration>
                <voice>3</voice>
                <type>quarter</type>
                <staff>2</staff>
            </note>
            <note>
                <pitch>
                    <step>D</step>
                    <octave>3</octave>
                </pitch>
                <duration>32</duration>
                <voice>3</voice>
                <type>eighth</type>
                <staff>2</staff>
                <beam number="1">begin</beam>
            </note>
            <note>
                <pitch>
                    <step>E</step>
                    <octave>3</octave>
                </pitch>
                <duration>16</duration>
                <voice>3</voice>
                <type>16th</type>
                <staff>2</staff>
                <beam number="1">continue</beam>
            </note>
            <note>
                <pitch>
                    <step>F</step>
                    <octave>3</octave>
                </pitch>
                <duration>16</duration>
                <voice>3</voice>
                <type>16th</type>
                <accidental>natural</accidental>
                <staff>2</staff>
                <beam number="1">end</beam>
            </note>
        </measure>
        <measure number="18">
            <note>
                <rest/>
                <duration>192</duration>
                <voice>1</voice>
                <type>whole</type>
                <staff>1</staff>
            </note>
            <backup>
                <duration>192</duration>
            </backup>
            <attributes/>
            <note>
                <pitch>
                    <step>F</step>
                    <octave>3</octave>
                </pitch>
                <duration>32</duration>
                <voice>3</voice>
                <type>eighth</type>
                <accidental>natural</accidental>
                <staff>2</staff>
                <beam number="1">begin</beam>
            </note>
            <note>
                <pitch>
                    <step>D</step>
                    <octave>3</octave>
                </pitch>
                <duration>32</duration>
                <voice>3</voice>
                <type>eighth</type>
                <staff>2</staff>
                <beam number="1">end</beam>
            </note>
            <note>
                <pitch>
                    <step>E</step>
                    <octave>3</octave>
                </pitch>
                <duration>32</duration>
                <voice>3</voice>
                <type>eighth</type>
                <staff>2</staff>
                <beam number="1">begin</beam>
            </note>
            <note>
                <pitch>
                    <step>C</step>
                    <octave>3</octave>
                </pitch>
                <duration>32</duration>
                <voice>3</voice>
                <type>eighth</type>
                <staff>2</staff>
                <beam number="1">end</beam>
            </note>
            <note>
                <pitch>
                    <step>C</step>
                    <octave>2</octave>
                </pitch>
                <duration>32</duration>
                <voice>3</voice>
                <type>eighth</type>
                <staff>2</staff>
                <beam number="1">begin</beam>
            </note>
            <note>
                <pitch>
                    <step>B</step>
                    <octave>2</octave>
                </pitch>
                <duration>32</duration>
                <voice>3</voice>
                <type>eighth</type>
                <staff>2</staff>
                <beam number="1">end</beam>
            </note>
        </measure>
        <measure number="19">
            <note>
                <rest/>
                <duration>192</duration>
                <voice>1</voice>
                <type>whole</type>
                <staff>1</staff>
            </note>
            <backup>
                <duration>192</duration>
            </backup>
            <attributes/>
            <note>
                <pitch>
                    <step>C</step>
                    <alter>1</alter>
                    <octave>3</octave>
                </pitch>
                <duration>32</duration>
                <voice>3</voice>
                <type>eighth</type>
                <accidental>sharp</accidental>
                <staff>2</staff>
                <beam number="1">begin</beam>
            </note>
            <note>
                <pitch>
                    <step>E</step>
                    <octave>3</octave>
                </pitch>
                <duration>32</duration>
                <voice>3</voice>
                <type>eighth</type>
                <staff>2</staff>
                <beam number="1">end</beam>
            </note>
            <note>
                <pitch>
                    <step>A</step>
                    <octave>3</octave>
                </pitch>
                <duration>64</duration>
                <voice>3</voice>
                <type>quarter</type>
                <staff>2</staff>
            </note>
            <note>
                <pitch>
                    <step>E</step>
                    <octave>3</octave>
                </pitch>
                <duration>32</duration>
                <voice>3</voice>
                <type>eighth</type>
                <staff>2</staff>
                <beam number="1">begin</beam>
            </note>
            <note>
                <pitch>
                    <step>F</step>
                    <octave>3</octave>
                </pitch>
                <duration>16</duration>
                <voice>3</voice>
                <type>16th</type>
                <staff>2</staff>
                <beam number="1">continue</beam>
            </note>
            <note>
                <pitch>
                    <step>G</step>
                    <octave>3</octave>
                </pitch>
                <duration>16</duration>
                <voice>3</voice>
                <type>16th</type>
                <staff>2</staff>
                <beam number="1">end</beam>
            </note>
        </measure>
        <measure number="20">
            <note>
                <rest/>
                <duration>192</duration>
                <voice>1</voice>
                <type>whole</type>
                <staff>1</staff>
            </note>
            <backup>
                <duration>192</duration>
            </backup>
            <attributes/>
            <note>
                <pitch>
                    <step>G</step>
                    <octave>3</octave>
                </pitch>
                <duration>32</duration>
                <voice>3</voice>
                <type>eighth</type>
                <staff>2</staff>
                <beam number="1">begin</beam>
            </note>
            <note>
                <pitch>
                    <step>E</step>
                    <octave>3</octave>
                </pitch>
                <duration>32</duration>
                <voice>3</voice>
                <type>eighth</type>
                <staff>2</staff>
                <beam number="1">end</beam>
            </note>
            <note>
                <pitch>
                    <step>F</step>
                    <octave>3</octave>
                </pitch>
                <duration>32</duration>
                <voice>3</voice>
                <type>eighth</type>
                <staff>2</staff>
                <beam number="1">begin</beam>
            </note>
            <note>
                <pitch>
                    <step>D</step>
                    <octave>3</octave>
                </pitch>
                <duration>32</duration>
                <voice>3</voice>
                <type>eighth</type>
                <staff>2</staff>
                <beam number="1">end</beam>
            </note>
            <note>
                <pitch>
                    <step>D</step>
                    <octave>2</octave>
                </pitch>
                <duration>32</duration>
                <voice>3</voice>
                <type>eighth</type>
                <staff>2</staff>
                <beam number="1">begin</beam>
            </note>
            <note>
                <pitch>
                    <step>A</step>
                    <octave>2</octave>
                </pitch>
                <duration>32</duration>
                <voice>3</voice>
                <type>eighth</type>
                <staff>2</staff>
                <beam number="1">end</beam>
            </note>
        </measure>
        <measure number="21">
            <note>
                <rest/>
                <duration>192</duration>
                <voice>1</voice>
                <type>whole</type>
                <staff>1</staff>
            </note>
            <backup>
                <duration>192</duration>
            </backup>
            <attributes/>
            <note>
                <pitch>
                    <step>D</step>
                    <octave>3</octave>
                </pitch>
                <duration>32</duration>
                <voice>3</voice>
                <type>eighth</type>
                <staff>2</staff>
                <beam number="1">begin</beam>
            </note>
            <note>
                <pitch>
                    <step>F</step>
                    <octave>3</octave>
                </pitch>
                <duration>32</duration>
                <voice>3</voice>
                <type>eighth</type>
                <staff>2</staff>
                <beam number="1">end</beam>
            </note>
            <note>
                <pitch>
                    <step>A</step>
                    <octave>3</octave>
                </pitch>
                <duration>32</duration>
                <voice>3</voice>
                <type>eighth</type>
                <staff>2</staff>
                <beam number="1">begin</beam>
            </note>
            <note>
                <pitch>
                    <step>C</step>
                    <octave>4</octave>
                </pitch>
                <duration>32</duration>
                <voice>3</voice>
                <type>eighth</type>
                <staff>2</staff>
                <beam number="1">end</beam>
            </note>
            <note>
                <pitch>
                    <step>B</step>
                    <octave>3</octave>
                </pitch>
                <duration>32</duration>
                <voice>3</voice>
                <type>eighth</type>
                <staff>2</staff>
                <beam number="1">begin</beam>
            </note>
            <note>
                <pitch>
                    <step>D</step>
                    <octave>4</octave>
                </pitch>
                <duration>32</duration>
                <voice>3</voice>
                <type>eighth</type>
                <staff>2</staff>
                <beam number="1">end</beam>
            </note>
        </measure>
        <measure number="22">
            <note>
                <rest/>
                <duration>192</duration>
                <voice>1</voice>
                <type>whole</type>
                <staff>1</staff>
            </note>
            <backup>
                <duration>192</duration>
            </backup>
            <attributes/>
            <note>
                <pitch>
                    <step>E</step>
                    <octave>3</octave>
                </pitch>
                <duration>32</duration>
                <voice>3</voice>
                <type>eighth</type>
                <staff>2</staff>
                <beam number="1">begin</beam>
            </note>
            <note>
                <pitch>
                    <step>G</step>
                    <octave>3</octave>
                </pitch>
                <duration>32</duration>
                <voice>3</voice>
                <type>eighth</type>
                <staff>2</staff>
                <beam number="1">end</beam>
            </note>
            <note>
                <pitch>
                    <step>B</step>
                    <octave>3</octave>
                </pitch>
                <duration>32</duration>
                <voice>3</voice>
                <type>eighth</type>
                <staff>2</staff>
                <beam number="1">begin</beam>
            </note>
            <note>
                <pitch>
                    <step>D</step>
                    <octave>4</octave>
                </pitch>
                <duration>32</duration>
                <voice>3</voice>
                <type>eighth</type>
                <staff>2</staff>
                <beam number="1">end</beam>
            </note>
            <note>
                <pitch>
                    <step>C</step>
                    <octave>4</octave>
                </pitch>
                <duration>32</duration>
                <voice>3</voice>
                <type>eighth</type>
                <staff>2</staff>
                <beam number="1">begin</beam>
            </note>
            <note>
                <pitch>
                    <step>E</step>
                    <octave>4</octave>
                </pitch>
                <duration>32</duration>
                <voice>3</voice>
                <type>eighth</type>
                <staff>2</staff>
                <beam number="1">end</beam>
            </note>
        </measure>
        <measure number="23">
            <note>
                <rest/>
                <duration>192</duration>
                <voice>1</voice>
                <type>whole</type>
                <staff>1</staff>
            </note>
            <backup>
                <duration>192</duration>
            </backup>
            <attributes/>
            <note>
                <pitch>
                    <step>D</step>
                    <octave>4</octave>
                </pitch>
                <duration>32</duration>
                <voice>3</voice>
                <type>eighth</type>
                <staff>2</staff>
                <beam number="1">begin</beam>
            </note>
            <note>
                <pitch>
                    <step>F</step>
                    <octave>3</octave>
                </pitch>
                <duration>32</duration>
                <voice>3</voice>
                <type>eighth</type>
                <staff>2</staff>
                <beam number="1">end</beam>
            </note>
            <note>
                <pitch>
                    <step>G</step>
                    <octave>3</octave>
                </pitch>
                <duration>32</duration>
                <voice>3</voice>
                <type>eighth</type>
                <staff>2</staff>
                <beam number="1">begin</beam>
            </note>
            <note>
                <pitch>
                    <step>B</step>
                    <octave>2</octave>
                </pitch>
                <duration>32</duration>
                <voice>3</voice>
                <type>eighth</type>
                <staff>2</staff>
                <beam number="1">end</beam>
            </note>
            <note>
                <pitch>
                    <step>D</step>
                    <octave>2</octave>
                </pitch>
                <duration>32</duration>
                <voice>3</voice>
                <type>eighth</type>
                <staff>2</staff>
                <beam number="1">begin</beam>
            </note>
            <note>
                <pitch>
                    <step>F</step>
                    <octave>3</octave>
                </pitch>
                <duration>32</duration>
                <voice>3</voice>
                <type>eighth</type>
                <staff>2</staff>
                <beam number="1">end</beam>
            </note>
        </measure>
        <measure number="24">
            <note>
                <rest/>
                <duration>192</duration>
                <voice>1</voice>
                <type>whole</type>
                <staff>1</staff>
            </note>
            <backup>
                <duration>192</duration>
            </backup>
            <attributes/>
            <note>
                <pitch>
                    <step>G</step>
                    <octave>3</octave>
                </pitch>
                <duration>128</duration>
                <voice>3</voice>
                <type>half</type>
                <staff>2</staff>
            </note>
            <note>
                <pitch>
                    <step>G</step>
                    <octave>2</octave>
                </pitch>
                <duration>64</duration>
                <voice>3</voice>
                <type>quarter</type>
                <staff>2</staff>
            </note>
        </measure>
        <measure number="25">
            <note>
                <rest/>
                <duration>192</duration>
                <voice>1</voice>
                <type>whole</type>
                <staff>1</staff>
            </note>
            <backup>
                <duration>192</duration>
            </backup>
            <attributes/>
            <note>
                <rest/>
                <duration>192</duration>
                <voice>3</voice>
                <type>whole</type>
                <staff>2</staff>
            </note>
            <barline location="right">
                <bar-style>light-heavy</bar-style>
            </barline>
        </measure>
    </part>
</score-partwise>
